<?xml version="1.0" encoding="UTF-8"?>
<svg id="Layer_1" data-name="Layer 1" xmlns="http://www.w3.org/2000/svg" viewBox="0 0 1000 1000">
  <defs>
    <style>
      .cls-1 {
        fill: #c978b1;
      }
    </style>
  </defs>
  <path class="cls-1" d="m548.85,458.93l-57.96-21.11c-12.97-4.72-27.31,1.96-32.04,14.93h0c-4.72,12.97,1.96,27.31,14.93,32.04l55.94,20.38c19.04,6.94,28.86,28,21.92,47.04h0c-6.94,19.04-28,28.86-47.04,21.92l-79.43-28.93-17.11,46.96-22.04,60.5h0c27.42,9.99,57.75-4.14,67.74-31.57l3.95-10.84,31.79,11.58c44.98,16.38,94.72-6.8,111.11-51.78h0c16.38-44.98-6.8-94.72-51.78-111.11Z"/>
  <path class="cls-1" d="m451.15,541.07l57.96,21.11c12.97,4.72,27.31-1.96,32.04-14.93h0c4.72-12.97-1.96-27.31-14.93-32.04l-55.94-20.38c-19.04-6.94-28.86-28-21.92-47.04h0c6.94-19.04,28-28.86,47.04-21.92l79.43,28.93,17.11-46.96,22.04-60.5h0c-27.42-9.99-57.75,4.14-67.74,31.57l-3.95,10.84-31.79-11.58c-44.98-16.38-94.72,6.8-111.11,51.78h0c-16.38,44.98,6.8,94.72,51.78,111.11Z"/>
</svg>