<?xml version="1.0" encoding="UTF-8"?>
<svg id="Layer_1" data-name="Layer 1" xmlns="http://www.w3.org/2000/svg" viewBox="0 0 1000 553.5">
  <defs>
    <style>
      .cls-1 {
        fill: #fff;
      }

      .cls-2 {
        fill: #c978b1;
      }
    </style>
  </defs>
  <path class="cls-1" d="m300.35,297.99c-2.58-1.06-4.65-2.62-6.19-4.7-1.55-2.07-2.36-4.57-2.44-7.49h11.56c.17,1.65.74,2.91,1.71,3.78.97.87,2.24,1.3,3.81,1.3s2.88-.37,3.81-1.11c.93-.74,1.4-1.77,1.4-3.08,0-1.1-.37-2.01-1.11-2.73-.74-.72-1.65-1.31-2.73-1.78-1.08-.47-2.61-.99-4.6-1.59-2.88-.89-5.23-1.78-7.05-2.67-1.82-.89-3.39-2.2-4.7-3.94-1.31-1.74-1.97-4-1.97-6.79,0-4.15,1.5-7.4,4.51-9.75,3.01-2.35,6.92-3.52,11.75-3.52s8.87,1.17,11.88,3.52c3.01,2.35,4.61,5.62,4.83,9.81h-11.75c-.09-1.44-.61-2.57-1.59-3.4-.97-.83-2.22-1.24-3.75-1.24-1.31,0-2.37.35-3.17,1.05-.81.7-1.21,1.7-1.21,3.02,0,1.44.68,2.56,2.03,3.37,1.35.8,3.47,1.67,6.35,2.6,2.88.97,5.22,1.9,7.02,2.79,1.8.89,3.36,2.18,4.67,3.87,1.31,1.69,1.97,3.87,1.97,6.54s-.65,4.85-1.94,6.92c-1.29,2.07-3.17,3.73-5.62,4.95-2.46,1.23-5.36,1.84-8.7,1.84s-6.18-.53-8.76-1.59Z"/>
  <path class="cls-1" d="m364.11,254.56v8.7h-11.81v35.88h-10.86v-35.88h-11.81v-8.7h34.48Z"/>
  <path class="cls-1" d="m397.32,291.26h-16.64l-2.67,7.87h-11.37l16.13-44.58h12.57l16.13,44.58h-11.49l-2.67-7.87Zm-2.79-8.38l-5.52-16.32-5.46,16.32h10.99Z"/>
  <path class="cls-1" d="m439.1,299.13l-9.27-16.83h-2.6v16.83h-10.86v-44.58h18.23c3.51,0,6.51.61,8.99,1.84,2.48,1.23,4.33,2.91,5.56,5.05,1.23,2.14,1.84,4.52,1.84,7.14,0,2.96-.84,5.61-2.51,7.94-1.67,2.33-4.14,3.98-7.4,4.95l10.29,17.65h-12.26Zm-11.87-24.51h6.73c1.99,0,3.48-.49,4.48-1.46.99-.97,1.49-2.35,1.49-4.13s-.5-3.03-1.49-4c-1-.97-2.49-1.46-4.48-1.46h-6.73v11.05Z"/>
  <path class="cls-1" d="m483.62,299.13l-14.99-19.69v19.69h-10.86v-44.58h10.86v19.56l14.86-19.56h12.76l-17.27,21.84,17.91,22.73h-13.27Z"/>
  <path class="cls-2" d="m535.31,258.75c3.22,2.71,4.83,6.44,4.83,11.18s-1.61,8.46-4.83,11.14c-3.22,2.69-7.66,4.03-13.34,4.03h-11.94v14.03h-4.7v-44.45h16.64c5.67,0,10.12,1.36,13.34,4.06Zm-3.37,19.34c2.33-1.93,3.49-4.65,3.49-8.16s-1.17-6.36-3.49-8.29c-2.33-1.93-5.69-2.89-10.1-2.89h-11.81v22.23h11.81c4.4,0,7.77-.96,10.1-2.89Z"/>
  <path class="cls-2" d="m555.06,294.56c-3.22-3.3-4.83-8.11-4.83-14.42v-25.46h4.7v25.27c0,5.17,1.16,9.02,3.49,11.56,2.33,2.54,5.69,3.81,10.1,3.81s7.83-1.27,10.16-3.81c2.33-2.54,3.49-6.39,3.49-11.56v-25.27h4.57v25.46c0,6.31-1.6,11.11-4.79,14.42-3.2,3.3-7.67,4.95-13.43,4.95s-10.25-1.65-13.46-4.95Z"/>
  <path class="cls-2" d="m600.9,254.68h4.7v40.39h24.89v4.06h-29.59v-44.45Z"/>
  <path class="cls-2" d="m640.56,297.93c-3.03-1.06-5.37-2.45-7.02-4.19l1.84-3.62c1.61,1.61,3.75,2.91,6.41,3.91,2.67,1,5.42,1.49,8.26,1.49,3.98,0,6.96-.73,8.95-2.19,1.99-1.46,2.98-3.35,2.98-5.68,0-1.78-.54-3.2-1.62-4.25-1.08-1.06-2.4-1.87-3.97-2.45-1.57-.57-3.75-1.2-6.54-1.87-3.34-.85-6.01-1.66-8-2.44-1.99-.78-3.69-1.98-5.11-3.59-1.42-1.61-2.13-3.79-2.13-6.54,0-2.24.59-4.29,1.78-6.13,1.18-1.84,3.01-3.31,5.46-4.41,2.45-1.1,5.5-1.65,9.14-1.65,2.54,0,5.03.35,7.46,1.05,2.43.7,4.54,1.66,6.32,2.89l-1.59,3.75c-1.86-1.23-3.85-2.15-5.97-2.76-2.12-.61-4.19-.92-6.22-.92-3.9,0-6.83.75-8.79,2.25-1.97,1.5-2.95,3.44-2.95,5.81,0,1.78.54,3.21,1.62,4.29,1.08,1.08,2.43,1.91,4.06,2.48,1.63.57,3.82,1.2,6.57,1.87,3.26.8,5.89,1.6,7.91,2.38,2.01.78,3.71,1.97,5.11,3.56,1.4,1.59,2.1,3.74,2.1,6.45,0,2.24-.6,4.29-1.81,6.13-1.21,1.84-3.06,3.3-5.56,4.38-2.5,1.08-5.57,1.62-9.21,1.62-3.3,0-6.47-.53-9.49-1.59Z"/>
  <path class="cls-2" d="m708.29,295.07v4.06h-31.43v-44.45h30.48v4.06h-25.78v15.81h22.99v4h-22.99v16.51h26.73Z"/>
</svg>